# xmcd CD database file
#
# Track frame offsets:
#	150
#	11343
#	24503
#	42371
#	53173
#	68760
#	87157
#	107258
#	124230
#	145622
#	161910
#	177321
#	191735
#	209144
#	226989
#	247830
#
# Disc length: 3699 seconds
#
# Revision: 0
# Processed by: cddbd v1.5.1PL0 Copyright (c) Steve Scherf et al.
# Submitted via: CDex 1.50
#
DISCID=d40e7110
DTITLE=Various Artist - Jazz Movie Theater
DYEAR=1900
DGENRE=Jazz
TTITLE0=My Funny Valentine
TTITLE1=I Love You for Sentimental Reasons
TTITLE2=I'll Close My Eyes
TTITLE3=I See Your Face Before Me
TTITLE4=Smoke Gets In Your Eyes
TTITLE5=As Time Goes By
TTITLE6=Summertime
TTITLE7=Why Should I Care
TTITLE8=The Very Thought of You
TTITLE9=Dream A Little Dream
TTITLE10=La Vie En Rose
TTITLE11=Misty
TTITLE12=When I Fall In Love
TTITLE13=Making Whoopee
TTITLE14=Tennessee Waltz
TTITLE15=Over The Rainbow
EXTD=
EXTT0=
EXTT1=
EXTT2=
EXTT3=
EXTT4=
EXTT5=
EXTT6=
EXTT7=
EXTT8=
EXTT9=
EXTT10=
EXTT11=
EXTT12=
EXTT13=
EXTT14=
EXTT15=
PLAYORDER=
